<svg height="800" viewBox="0 0 463 463" width="800" xmlns="http://www.w3.org/2000/svg"><path d="m151.245 222.446c-3.191 14.593-16.209 25.554-31.745 25.554-4.142 0-7.5 3.357-7.5 7.5s3.358 7.5 7.5 7.5c23.774 0 43.522-17.557 46.966-40.386 14.556-1.574 27.993-8.06 38.395-18.677 2.899-2.959 2.85-7.708-.109-10.606-2.958-2.897-7.707-2.851-10.606.108-9.199 9.39-21.503 14.561-34.646 14.561-26.743 0-48.5-21.757-48.5-48.5 0-4.143-3.358-7.5-7.5-7.5s-7.5 3.357-7.5 7.5c0 32.215 24.119 58.884 55.245 62.946z"/><path d="m183 287.5c0-4.143-3.358-7.5-7.5-7.5-35.014 0-63.5 28.486-63.5 63.5 0 .362.013.725.019 1.088-2.789-.376-5.629-.588-8.519-.588-4.142 0-7.5 3.357-7.5 7.5s3.358 7.5 7.5 7.5c26.743 0 48.5 21.757 48.5 48.5 0 4.143 3.358 7.5 7.5 7.5s7.5-3.357 7.5-7.5c0-26.611-16.462-49.437-39.731-58.867-.178-1.699-.269-3.418-.269-5.133 0-26.743 21.757-48.5 48.5-48.5 4.142 0 7.5-3.357 7.5-7.5z"/><path d="m439 223.5c0-17.075-6.82-33.256-18.875-45.156 1.909-6.108 2.875-12.426 2.875-18.844 0-30.874-22.152-56.659-51.394-62.329 2.235-5.571 3.394-11.543 3.394-17.671 0-19.557-11.883-36.387-28.806-43.661-28.195-22.456-59.032-35.839-82.694-35.839-13.153 0-24.817 6.468-32 16.384-7.183-9.916-18.847-16.384-32-16.384-23.662 0-54.499 13.383-82.694 35.839-16.923 7.274-28.806 24.104-28.806 43.661 0 6.128 1.159 12.1 3.394 17.671-29.242 5.67-51.394 31.455-51.394 62.329 0 6.418.965 12.735 2.875 18.844-12.055 11.9-18.875 28.081-18.875 45.156 0 13.348 4.149 25.741 11.213 35.975-7.341 10.612-11.213 22.991-11.213 36.025 0 23.088 12.587 44.242 32.516 55.396-.343 2.852-.516 5.73-.516 8.604 0 31.144 20.315 58.679 49.79 68.063 12.821 21.942 36.175 35.437 61.71 35.437 27.995 0 52.269-16.181 64-39.674 11.731 23.493 36.005 39.674 64 39.674 25.535 0 48.889-13.495 61.71-35.437 29.475-9.385 49.79-36.92 49.79-68.063 0-2.874-.173-5.752-.516-8.604 19.929-11.154 32.516-32.308 32.516-55.396 0-13.034-3.872-25.413-11.213-36.025 7.064-10.234 11.213-22.627 11.213-35.975zm-271.5 224.5c-21.029 0-40.191-11.594-50.009-30.256-.973-1.849-2.671-3.208-4.688-3.751-24.613-6.624-41.803-29.032-41.803-54.493 0-3.81.384-7.626 1.141-11.344.702-3.447-1.087-6.92-4.302-8.35-17.519-7.788-28.839-25.18-28.839-44.306 0-8.699 2.256-17.014 6.561-24.379 11.196 9.871 25.875 15.879 41.939 15.879 4.142 0 7.5-3.357 7.5-7.5s-3.358-7.5-7.5-7.5c-26.743 0-48.5-21.757-48.5-48.5 0-14.396 6.352-27.964 17.428-37.221 2.5-2.09 3.365-5.555 2.14-8.574-2.368-5.836-3.568-11.961-3.568-18.205 0-26.743 21.757-48.5 48.5-48.5s48.5 21.757 48.5 48.5c0 4.143 3.358 7.5 7.5 7.5s7.5-3.357 7.5-7.5c0-33.642-26.302-61.243-59.421-63.355-3.002-5.018-4.579-10.724-4.579-16.645 0-13.369 8.116-24.875 19.678-29.859.447-.133.885-.307 1.308-.527 3.582-1.362 7.461-2.114 11.514-2.114 12.557 0 23.767 7.021 29.256 18.325 1.81 3.727 6.298 5.281 10.023 3.47 3.726-1.809 5.28-6.296 3.47-10.022-6.266-12.903-18.125-22.177-31.782-25.462 19.142-11.68 37.987-18.311 53.033-18.311 13.509 0 24.5 10.99 24.5 24.5v97.051c-6.739-5.346-15.25-8.551-24.5-8.551-4.142 0-7.5 3.357-7.5 7.5s3.358 7.5 7.5 7.5c13.509 0 24.5 10.99 24.5 24.5v180.279c-9.325-12.031-22.471-21.111-37.935-25.266-3.999-1.071-8.114 1.297-9.189 5.297-1.075 4.001 1.297 8.115 5.297 9.189 24.627 6.617 41.827 29.028 41.827 54.501 0 31.154-25.346 56.5-56.5 56.5zm227.661-108.193c-3.215 1.43-5.004 4.902-4.302 8.35.757 3.718 1.141 7.534 1.141 11.344 0 25.461-17.19 47.869-41.803 54.493-2.017.543-3.716 1.902-4.688 3.751-9.818 18.661-28.98 30.255-50.009 30.255-31.154 0-56.5-25.346-56.5-56.5 0-2.109-.098-4.2-.281-6.271.178-.641.281-1.314.281-2.012v-247.717c0-13.51 10.991-24.5 24.5-24.5 4.142 0 7.5-3.357 7.5-7.5s-3.358-7.5-7.5-7.5c-9.25 0-17.761 3.205-24.5 8.551v-65.051c0-13.51 10.991-24.5 24.5-24.5 15.046 0 33.891 6.631 53.033 18.311-13.657 3.284-25.516 12.559-31.782 25.462-1.81 3.727-.256 8.214 3.47 10.022 3.726 1.81 8.213.257 10.023-3.47 5.489-11.304 16.699-18.325 29.256-18.325 4.053 0 7.933.752 11.514 2.114.422.22.86.393 1.305.526 11.564 4.984 19.681 16.49 19.681 29.86 0 5.921-1.577 11.627-4.579 16.645-33.119 2.112-59.421 29.713-59.421 63.355 0 4.143 3.358 7.5 7.5 7.5s7.5-3.357 7.5-7.5c0-26.743 21.757-48.5 48.5-48.5s48.5 21.757 48.5 48.5c0 6.244-1.2 12.369-3.567 18.205-1.225 3.02-.36 6.484 2.14 8.574 11.075 9.257 17.427 22.825 17.427 37.221 0 26.743-21.757 48.5-48.5 48.5-4.142 0-7.5 3.357-7.5 7.5s3.358 7.5 7.5 7.5c16.064 0 30.743-6.008 41.939-15.879 4.306 7.365 6.561 15.68 6.561 24.379 0 19.126-11.32 36.518-28.839 44.307z"/><path d="m359.5 240c-15.536 0-28.554-10.961-31.745-25.554 31.126-4.062 55.245-30.731 55.245-62.946 0-4.143-3.358-7.5-7.5-7.5s-7.5 3.357-7.5 7.5c0 26.743-21.757 48.5-48.5 48.5-13.143 0-25.447-5.171-34.646-14.561-2.898-2.958-7.647-3.007-10.606-.108s-3.008 7.647-.109 10.606c10.402 10.617 23.839 17.103 38.395 18.677 3.444 22.829 23.192 40.386 46.966 40.386 4.142 0 7.5-3.357 7.5-7.5s-3.358-7.5-7.5-7.5z"/><path d="m335.5 328c-2.89 0-5.73.212-8.519.588.006-.363.019-.726.019-1.088 0-35.014-28.486-63.5-63.5-63.5-4.142 0-7.5 3.357-7.5 7.5s3.358 7.5 7.5 7.5c26.743 0 48.5 21.757 48.5 48.5 0 1.714-.091 3.434-.269 5.133-23.269 9.43-39.731 32.256-39.731 58.867 0 4.143 3.358 7.5 7.5 7.5s7.5-3.357 7.5-7.5c0-26.743 21.757-48.5 48.5-48.5 4.142 0 7.5-3.357 7.5-7.5s-3.358-7.5-7.5-7.5z"/></svg>